<?xml version="1.0" encoding="UTF-8" standalone="no"?>
<!-- Created with Inkscape (http://www.inkscape.org/) -->

<svg
    xmlns:dc="http://purl.org/dc/elements/1.1/"
    xmlns:cc="http://creativecommons.org/ns#"
    xmlns:rdf="http://www.w3.org/1999/02/22-rdf-syntax-ns#"
    xmlns:svg="http://www.w3.org/2000/svg"
    xmlns="http://www.w3.org/2000/svg"
    xmlns:xlink="http://www.w3.org/1999/xlink"
    version="1.1"
    width="256"
    height="256"
    viewBox="0 0 256 256"
    id="Capa_1"
    xml:space="preserve"><metadata
    id="metadata3039"><rdf:RDF><cc:Work
         rdf:about=""><dc:format>image/svg+xml</dc:format><dc:type
            rdf:resource="http://purl.org/dc/dcmitype/StillImage" /><dc:title></dc:title></cc:Work></rdf:RDF></metadata><defs
    id="defs3037"><linearGradient
      id="linearGradient3856"><stop
         id="stop3858"
         style="stop-color:#67ff80;stop-opacity:1"
         offset="0" /><stop
         id="stop3882"
         style="stop-color:#ffffff;stop-opacity:0.96862745"
         offset="1" /></linearGradient><linearGradient
      x1="32.771084"
      y1="11.643374"
      x2="32.670757"
      y2="58.448193"
      id="linearGradient3864"
      xlink:href="#linearGradient3856"
      gradientUnits="userSpaceOnUse"
      gradientTransform="matrix(3.7567714,0,0,3.7567714,8.219301,-193.85131)" /></defs>
<g
    transform="translate(-1.40625,196.035)"
    id="g3027"
    style="fill:#000000">
    <rect
    width="205.29501"
    height="126.8793"
    x="26.758743"
    y="-151.55821"
    id="rect3086"
    style="fill:url(#linearGradient3864);fill-opacity:1;stroke:none" /><path
    d="M 14.824722,-165.04814 V -10.55092 0.71939342 H 243.98778 V -10.55092 -165.04814 H 14.824722 z m 15.027086,15.02708 H 228.96069 V -25.578006 H 29.851808 V -150.02106 z m 8.137166,143.2231539 c -2.449415,0 -4.511882,-1.5740871 -5.289533,-3.7567709 -0.21038,-0.589814 -0.345624,-1.217194 -0.345624,-1.878386 0,-0.661191 0.135244,-1.288572 0.345624,-1.878386 0.777651,-2.182684 2.840118,-3.756771 5.289533,-3.756771 2.449415,0 4.515639,1.574087 5.289534,3.756771 0.210379,0.589814 0.345623,1.217195 0.345623,1.878386 0,0.661192 -0.135244,1.288572 -0.345623,1.878386 -0.773895,2.1826838 -2.840119,3.7567709 -5.289534,3.7567709 z"
    id="path3029"
    style="fill:#000000;stroke:#c5c5c5;stroke-width:1.87838578;stroke-miterlimit:4;stroke-opacity:1;stroke-dasharray:none" />
    <rect
    width="128.98123"
    height="13.828675"
    x="64.915634"
    y="17.594812"
    id="rect3031"
    style="fill:#000000" />
    <rect
    width="80.143204"
    height="9.5008755"
    x="89.334648"
    y="4.1267905"
    id="rect3033"
    style="fill:#000000" />
</g>
<g
    transform="matrix(4.3534575,0,0,4.3534575,79.907849,54.585017)"
    id="g3053"
    style="fill:#4d4d4d"><path
      d="M 21.609,18.84 21.624,18.831 13.739,10.914 17.318,7.335 20.515,5.275 21.786,2.99 20.309,1.511 18.024,2.784 15.962,5.98 12.387,9.556 8.84,5.994 8.824,1.289 4.015,0 3.5,0.511 6.058,3.066 3.564,5.565 1.008,3.011 0.493,3.52 1.784,8.33 6.36,8.342 6.332,8.372 9.946,12.001 8.61,13.338 7.733,12.463 6.381,13.816 6.801,14.234 C 5.586,14.699 2.234,18.052 1.768,19.265 L 1.35,18.846 0,20.199 3.104,23.303 4.457,21.949 4.035,21.529 c 1.215,-0.462 4.569,-3.817 5.033,-5.03 l 0.419,0.421 1.352,-1.354 -0.875,-0.876 1.333,-1.333 7.881,7.912 0.014,-0.01 c 0.672,0.65 1.744,0.651 2.401,-0.013 0.664,-0.661 0.666,-1.731 0.016,-2.406 z m -0.649,1.769 c -0.296,0.296 -0.774,0.299 -1.073,0 -0.291,-0.296 -0.296,-0.771 -0.002,-1.071 0.301,-0.296 0.777,-0.296 1.075,0 0.299,0.295 0.299,0.773 0,1.071 z"
      id="path3055"
      style="fill:#4d4d4d" /></g></svg>
